<svg width="100" height="51" viewBox="0 0 100 51" fill="none" xmlns="http://www.w3.org/2000/svg">
<path d="M34.6441 22.3115C40.1149 22.3115 44.5498 17.8765 44.5498 12.4057C44.5498 6.93496 40.1149 2.5 34.6441 2.5C29.1733 2.5 24.7383 6.93496 24.7383 12.4057C24.7383 17.8765 29.1733 22.3115 34.6441 22.3115Z" fill="#394149"/>
<path d="M56.7881 22.3115C62.2589 22.3115 66.6938 17.8765 66.6938 12.4057C66.6938 6.93496 62.2589 2.5 56.7881 2.5C51.3173 2.5 46.8823 6.93496 46.8823 12.4057C46.8823 17.8765 51.3173 22.3115 56.7881 22.3115Z" fill="#394149"/>
<path d="M22.406 2.5H2.604V22.302H22.406V2.5Z" fill="#394149"/>
<path d="M6.01172 30.1406L7.10742 30.123C9.01758 30.123 10.3594 30.4395 11.1328 31.0723C11.2969 31.1934 11.4766 31.3965 11.6719 31.6816C12.2383 32.5059 12.5215 33.416 12.5215 34.4121C12.5215 36.1895 11.9102 37.5039 10.6875 38.3555C9.95703 38.8672 9.11719 39.127 8.16797 39.1348L8.14453 39.1582H7.99805L6.43945 39.1406C5.73242 39.1406 4.84766 39.1582 3.78516 39.1934C3.71094 39.0527 3.67383 38.8867 3.67383 38.6953L3.67969 38.4844V37.5703L3.69141 36.2695V34.125C3.68359 33.6328 3.67969 33.2656 3.67969 33.0234V32.0625L3.68555 31.9277V30.252C3.68555 30.2207 3.89844 30.1953 4.32422 30.1758C4.75 30.1523 5.08984 30.1406 5.34375 30.1406H6.01172ZM8.49609 32.168C8.27344 32.0078 8.02734 31.918 7.75781 31.8984C7.66406 31.8945 7.53516 31.8906 7.37109 31.8867C7.21094 31.8828 7.09375 31.8789 7.01953 31.875C6.94922 31.9805 6.90234 32.0586 6.87891 32.1094L6.77344 32.3262V32.6543C6.77344 33.3301 6.78906 34.2461 6.82031 35.4023L6.85547 37.0957C6.87891 37.2168 6.95703 37.2891 7.08984 37.3125C7.49219 37.3047 7.80273 37.2773 8.02148 37.2305C8.79102 36.957 9.17578 36.0215 9.17578 34.4238C9.17578 33.2402 8.94922 32.4883 8.49609 32.168ZM12.9141 31.9863L14.4727 31.9805H16.0312L16.1602 32.7656C16.25 33.3164 16.3027 33.6289 16.3184 33.7031H16.5234C16.668 33.0352 16.9453 32.5605 17.3555 32.2793L17.5898 32.1445C17.6016 32.1211 17.6719 32.0781 17.8008 32.0156L17.7773 32.0215L17.9121 31.9688C18.2949 31.8164 18.625 31.7383 18.9023 31.7344C18.9609 31.7344 19 31.7383 19.0195 31.7461H19.2363V35.0156C19.1543 34.9961 19.0254 34.9863 18.8496 34.9863C18.6738 34.9863 18.4922 35.0117 18.3047 35.0625C18.1211 35.1133 17.9648 35.1797 17.8359 35.2617C17.7109 35.3398 17.6016 35.4414 17.5078 35.5664C17.2188 35.9531 17.0742 36.5332 17.0742 37.3066L17.0859 37.9219V39L15 39.0059H12.9199L12.9141 35.5078V31.9863ZM22.9102 35.1094L22.9688 35.1152H23.1094C23.2422 35.1152 23.3457 35.1055 23.4199 35.0859L23.7363 35.0449C24.2754 35.0059 24.5996 34.8613 24.709 34.6113C24.7637 34.4863 24.791 34.3281 24.791 34.1367C24.7676 34.0977 24.7559 34.0234 24.7559 33.9141C24.7559 33.8047 24.6992 33.6895 24.5859 33.5684C24.4766 33.4473 24.3457 33.3867 24.1934 33.3867H24.1641C23.7891 33.3867 23.6016 33.7051 23.6016 34.3418C23.582 34.373 23.5488 34.3848 23.502 34.377C23.459 34.3691 23.3516 34.3652 23.1797 34.3652H20.1562C20.1758 34.0957 20.2461 33.8047 20.3672 33.4922C20.5977 32.8906 21.043 32.459 21.7031 32.1973C22.3672 31.9316 23.0254 31.7871 23.6777 31.7637L24.0293 31.7461L24.2168 31.7285C24.2402 31.7285 24.2637 31.7344 24.2871 31.7461H24.3633L24.627 31.7344C24.6816 31.7344 24.8047 31.748 24.9961 31.7754L25.166 31.7988C25.1934 31.8027 25.2363 31.8047 25.2949 31.8047C25.3535 31.8047 25.4766 31.8184 25.6641 31.8457C25.8516 31.8691 26.0859 31.9355 26.3672 32.0449C27.3203 32.4199 27.8984 33.1387 28.1016 34.2012C28.1875 34.6504 28.2305 35.1484 28.2305 35.6953C28.2578 35.7852 28.2715 35.8672 28.2715 35.9414L28.2422 36.3457V37.0254C28.2461 37.0332 28.248 37.0664 28.248 37.125L28.2363 37.5234V37.5762C28.248 37.5957 28.2539 37.623 28.2539 37.6582L28.248 37.7109V37.834C28.248 38.2051 28.3047 38.5566 28.418 38.8887L28.4766 39.0176H25.8281L25.6172 39.0117C25.4609 39.0117 25.3418 39.0137 25.2598 39.0176C25.1348 38.7832 25.0156 38.4629 24.9023 38.0566C24.8516 38.1621 24.7637 38.2832 24.6387 38.4199C24.5176 38.5527 24.4277 38.6191 24.3691 38.6191C23.791 38.9004 23.3516 39.0605 23.0508 39.0996C22.6055 39.1738 22.3652 39.2109 22.3301 39.2109C22.2988 39.2109 22.2832 39.2109 22.2832 39.2109C21.3496 39.2109 20.6445 38.8867 20.168 38.2383C19.9297 37.9062 19.8105 37.5215 19.8105 37.084C19.8105 36.1348 20.252 35.5527 21.1348 35.3379C21.3613 35.2832 21.7988 35.2266 22.4473 35.168L22.6406 35.1504L22.9102 35.1094ZM24.832 36.4688L24.8379 36.2812C24.8379 36.0859 24.8223 35.8984 24.791 35.7188C24.7051 35.7656 24.5801 35.8184 24.416 35.877C24.252 35.9355 24.1211 35.9863 24.0234 36.0293C23.9258 36.0684 23.8359 36.1406 23.7539 36.2461C23.6758 36.3477 23.6367 36.4883 23.6367 36.668C23.6367 36.8477 23.6934 37.0117 23.8066 37.1602C23.9238 37.3086 24.0508 37.3828 24.1875 37.3828C24.4805 37.3828 24.6895 37.2773 24.8145 37.0664L24.8262 37.0078L24.832 36.6445V36.4688ZM35.5254 32.0508L35.959 34.8516H35.9707C36.0254 34.5547 36.0957 34.1289 36.1816 33.5742L36.2754 32.9648L36.3574 32.5312C36.3848 32.2656 36.4121 32.082 36.4395 31.9805H40.2773C40.0508 33.0391 39.6328 34.9512 39.0234 37.7168L38.6953 39.0059H34.9688L34.8398 38.0273C34.7734 37.5977 34.7031 37.084 34.6289 36.4863C34.5586 35.8848 34.5195 35.584 34.5117 35.584L33.9961 39.0059H30.0293C29.8965 38.3887 29.7617 37.6406 29.625 36.7617C29.4883 35.8789 29.4062 35.3516 29.3789 35.1797L29.2559 34.4004C29.2559 34.3965 29.1191 33.5879 28.8457 31.9746H30.8086L32.7598 31.9688C32.7676 32.0742 32.7773 32.1523 32.7891 32.2031L32.8242 32.4551C32.9648 33.6855 33.0508 34.5059 33.082 34.916H33.1055C33.1211 34.8223 33.1445 34.666 33.1758 34.4473C33.207 34.2246 33.2324 34.0527 33.252 33.9316L33.5391 32.2148L33.5508 32.0625C33.9766 32.0547 34.6348 32.0508 35.5254 32.0508ZM47.8008 30.4277L47.7949 30.9727C47.7949 31.5078 47.7871 31.9844 47.7715 32.4023C47.3145 32.4414 46.6895 32.4609 45.8965 32.4609L44.543 32.4668V32.6367L44.5312 33.1523C44.5312 33.2891 44.5371 33.4219 44.5488 33.5508C45.5254 33.4688 46.248 33.4277 46.7168 33.4277C47.1895 33.4277 47.4785 33.4629 47.584 33.5332V35.4961C47.584 35.625 47.5586 35.7109 47.5078 35.7539C47.457 35.7969 47.3789 35.8184 47.2734 35.8184H47.1973L46.8809 35.8066C46.1816 35.8457 45.4062 35.875 44.5547 35.8945L44.5957 38.2266L44.5898 38.4258V38.9766C44.5898 39.0938 44.5547 39.1562 44.4844 39.1641L41.1328 39.1934C41.125 39.1699 41.0957 39.1172 41.0449 39.0352C41.0293 38.7773 41.0215 38.5586 41.0215 38.3789L41.0566 30.2285C41.0566 30.1777 41.3223 30.1523 41.8535 30.1523L42 30.1582H42.3984L45.2285 30.1289L47.2383 30.1523H47.4375L47.5254 30.1465C47.6348 30.1465 47.707 30.1719 47.7422 30.2227C47.7812 30.2695 47.8008 30.3379 47.8008 30.4277ZM48.1406 29.8008L49.6289 29.7949C50.082 29.7949 50.7852 29.7988 51.7383 29.8066V39.0059H48.1523L48.1406 29.8008ZM61.1543 35.4551C61.1465 35.4941 61.1426 35.5176 61.1426 35.5254V35.5723C61.1309 36.2168 60.9824 36.7969 60.6973 37.3125H60.7031C60.3047 37.9219 59.748 38.3906 59.0332 38.7188C58.3223 39.0469 57.6211 39.2109 56.9297 39.2109C56.2383 39.2109 55.6641 39.1426 55.207 39.0059C54.7539 38.873 54.334 38.6777 53.9473 38.4199C53.5605 38.1621 53.2734 37.9141 53.0859 37.6758C52.6406 37.1133 52.418 36.3184 52.418 35.291C52.418 35.2559 52.4238 35.2266 52.4355 35.2031V35.1094C52.4238 35.0938 52.418 35.0781 52.418 35.0625L52.4297 34.998H52.4238C52.498 34.3145 52.6426 33.8652 52.8574 33.6504C52.8574 33.6074 52.8848 33.5586 52.9395 33.5039V33.5098L53.0273 33.3691C53.4883 32.7793 54.0156 32.375 54.6094 32.1562L54.8145 32.0801C55.0723 31.9551 55.4336 31.8613 55.8984 31.7988L56.0859 31.7812C56.1133 31.7773 56.168 31.7734 56.25 31.7695C56.3359 31.7656 56.3965 31.7578 56.4316 31.7461L56.6836 31.752C56.6953 31.748 56.709 31.7461 56.7246 31.7461C56.7402 31.7461 56.7578 31.748 56.7773 31.752L56.7715 31.7461C56.7949 31.7578 56.8301 31.7637 56.877 31.7637C56.8926 31.748 56.9199 31.7402 56.959 31.7402C57.8066 31.7402 58.5273 31.9141 59.1211 32.2617L59.2383 32.3145C60.5156 32.9277 61.1543 33.9746 61.1543 35.4551ZM57.5098 35.4902C57.4941 34.7129 57.3828 34.1875 57.1758 33.9141C57.0898 33.8008 56.9844 33.7441 56.8594 33.7441C56.7383 33.7441 56.6309 33.8164 56.5371 33.9609C56.4434 34.1016 56.3672 34.3242 56.3086 34.6289C56.2539 34.9336 56.2266 35.2051 56.2266 35.4434C56.2266 35.6777 56.2363 35.8809 56.2559 36.0527C56.2793 36.2207 56.3125 36.4004 56.3555 36.5918C56.3984 36.7793 56.4648 36.9375 56.5547 37.0664C56.6445 37.1914 56.7461 37.2539 56.8594 37.2539C57.293 37.2539 57.5098 36.666 57.5098 35.4902ZM68.1738 32.0508L68.6074 34.8516H68.6191C68.6738 34.5547 68.7441 34.1289 68.8301 33.5742L68.9238 32.9648L69.0059 32.5312C69.0332 32.2656 69.0605 32.082 69.0879 31.9805H72.9258C72.6992 33.0391 72.2812 34.9512 71.6719 37.7168L71.3438 39.0059H67.6172L67.4883 38.0273C67.4219 37.5977 67.3516 37.084 67.2773 36.4863C67.207 35.8848 67.168 35.584 67.1602 35.584L66.6445 39.0059H62.6777C62.5449 38.3887 62.4102 37.6406 62.2734 36.7617C62.1367 35.8789 62.0547 35.3516 62.0273 35.1797L61.9043 34.4004C61.9043 34.3965 61.7676 33.5879 61.4941 31.9746H63.457L65.4082 31.9688C65.416 32.0742 65.4258 32.1523 65.4375 32.2031L65.4727 32.4551C65.6133 33.6855 65.6992 34.5059 65.7305 34.916H65.7539C65.7695 34.8223 65.793 34.666 65.8242 34.4473C65.8555 34.2246 65.8809 34.0527 65.9004 33.9316L66.1875 32.2148L66.1992 32.0625C66.625 32.0547 67.2832 32.0508 68.1738 32.0508Z" fill="#394149"/>
</svg>
